<svg id="Layer_1" data-name="Layer 1" xmlns="http://www.w3.org/2000/svg" viewBox="0 0 330.35 348.71"><defs><style>.cls-1{fill:#fe81a8;}</style></defs><path class="cls-1" d="M57.34,154.34c.15-.63.29-1.26.45-1.89,1.24-5.08,3.49-7.19,10.43-7.9a11.67,11.67,0,0,1,4.1.47c5.13,1.42,10.22,2.95,15.63,4.79-.22.05-.43.09-.64.16-3,.95-3,.95-3,4.15v34.54c4.91.48,9.69,1,14.48,1.41a35.37,35.37,0,0,0,13.33-1.4,9.57,9.57,0,0,0,5.21-3.29c-3.48-2.39-6.4-5.21-7.79-9.42-.44,1.31-.83,2.64-1.32,3.93-2.18,5.64-7.88,7.67-13.22,4.8-2.49-1.33-3.3-3.45-3.3-6.06,0-5.44,0-10.89,0-16.33,0-2,.22-4.06-2.83-4.27,2.44-.73,5.11-.1,6.91-2.75.08,1.22.18,2,.18,2.85,0,6.55,0,13.11,0,19.66a13.45,13.45,0,0,0,.37,3.29c1,3.81,4.91,5,8,2.5a10.52,10.52,0,0,0,4-7.59c.26-4.6.21-9.21.29-13.82,0-.77-.06-1.56,0-2.33.17-1.68-.19-3-2.09-3.45h5.88c0,.59.08,1.17.08,1.76,0,4.83-.18,9.66-.06,14.49a20.07,20.07,0,0,0,1.06,6.16c2.32,6.46,10.83,7.7,16.2,5.63,2.45-1,4.2-2.39,4.73-5.09.47-2.41-.2-4.16-2.4-5.28-1.87-.95-3.9-1.59-5.81-2.47a21.07,21.07,0,0,1-4.21-2.28,7.19,7.19,0,0,1,.32-11.93c3.37-2.39,6.91-2.18,10.56-.48,2.36,1.1,3.73,2.57,3.15,5.39-.22,1.05,0,2.18-.24,3.28-.26-1.23-.43-2.49-.79-3.7a6.85,6.85,0,0,0-9.42-4.41,4.6,4.6,0,0,0-2.92,4.44,4.09,4.09,0,0,0,2.57,4.24c2.53,1.13,5,2.39,7.5,3.58,3.84,1.82,5.6,4.33,5.41,7.77-.2,3.82-2.53,6.68-6.49,8a20.88,20.88,0,0,1-9.55.67,6.79,6.79,0,0,0-6.4,2c-5,5-11.44,6.07-18.22,5-3.78-.58-7.5-1.52-11.24-2.28-.59-.12-1.2-.15-2-.23-.28,5.26-4.18,8.07-7.43,11.25-2.15,2.1-5.07,2.69-8,2.8a2.45,2.45,0,0,1-1.66-1.1c-1.19-1.73-2.28-3.54-3.36-5.36-1.61-2.72-1.1-6.28,1.08-7.83,2.45-1.73,5.24-1.16,7.66,1.67a68.71,68.71,0,0,0,6-3.4,3.51,3.51,0,0,0,1-2.56c.08-8.5.11-17,0-25.5,0-4.33-.19-8.59,4.74-10.88l-.3-.37-15.28-2.7a9.72,9.72,0,0,0-6.7,1.42,7.27,7.27,0,0,0-3.45,8.13,3.85,3.85,0,0,0,2.42,2.92c1.43.59,2.75,1.43,4.34,2.28A4.62,4.62,0,0,1,59.37,160a27,27,0,0,1-2-4.27Zm22,36c-3.78.57-4.9,4.17-7.54,5.89-.12-.57-.18-1.07-.32-1.53a3.19,3.19,0,0,0-3.07-2.59,3.77,3.77,0,0,0-2.66,1.27c-1,1.31-.39,2.69.58,3.93a26.19,26.19,0,0,1,2.47,3.73c.52,1,1.26,1.34,2.14.9a24.15,24.15,0,0,0,5.51-3.18A8.68,8.68,0,0,0,79.39,190.35Z"/><path class="cls-1" d="M149.68,144v12.7c3.12-.53,6.14-1.09,9.18-1.54,5.15-.77,10.29-1.65,15.47-2.16,4.06-.4,7.75,1,11.1,3.33.73.5,1.5.93,2.26,1.4-.21,1.26-.93.83-1.68.58-2.14-.71-4.29-1.81-6.48-1.93a86.67,86.67,0,0,0-11.27.35c-5.81.43-11.61,1-17.41,1.55-.32,0-.64.09-1.12.17v21c0,2.93.86,4.42,2.89,5a7,7,0,0,0,7.36-2.65,5.24,5.24,0,0,0-.48-6.47,18.87,18.87,0,0,0-4.1-2.33c-.74-.4-1.5-.78-2.58-1.34a6.15,6.15,0,0,1,8.49,5.14,18.53,18.53,0,0,1,0,3.16c-.36,4.07-3.77,6.49-8.24,5.91-4.85-.63-7-3.1-7.05-8,0-5.89,0-11.78,0-17.66v-1.8L140.1,158l0-.84a9,9,0,0,1,1.86-.44c3.8-.06,5.82-1.51,6.52-5.29A68,68,0,0,0,149,144Z"/><path class="cls-1" d="M273,183c-1.29,2.26-3.26,3.3-5.28,2.79a5.21,5.21,0,0,1-4.1-5.34q0-14.4,0-28.8c0-3.31,0-3.31-2.92-4.29l6.63-1.67s.06.49.06,1c0,9.88,0,19.75,0,29.63,0,1.66-.31,3.31-.35,5-.06,2,1,3,3,2.92,1.74,0,2.11-.56,2.44-3.65l.59.82Z"/><path class="cls-1" d="M218.37,157.29c.19-.95.38-1.8.55-2.66a11.57,11.57,0,0,1,13.19-9.24,2.28,2.28,0,0,1,2.21,2.76c-.16,1.58-.52,3.15-.83,5a22,22,0,0,1-4.38-1.22,4.26,4.26,0,0,1-2-2.37c-.14-.49.92-1.37,1.5-2a5.57,5.57,0,0,1,1.09-.72l-.15-.48a20.14,20.14,0,0,0-3.81,1.21,12.16,12.16,0,0,0-5.89,7.92,4,4,0,0,0,1.18,3.79c3.94,4.56,3.52,10-1.08,13.92a14.07,14.07,0,0,1-9.76,3.58c-.67,0-1.33,0-2.2,0a3,3,0,0,0,2.52,2.59c2.07.33,4.18.44,6.28.64,3.92.37,7.84.7,11.76,1.11a4.06,4.06,0,0,1,3.77,3c.64,2.21.58,4.35-1.2,6a14.91,14.91,0,0,1-7.9,3.63c-7.39,1.29-14.69,1.33-21.63-2.08a10.86,10.86,0,0,1-1.84-1.14,5.35,5.35,0,0,1-1.86-5.51,5.51,5.51,0,0,1,4.66-4,10.16,10.16,0,0,1,2.1.27l.13.7a35.53,35.53,0,0,1-3.33,1.52c-1.3.43-2.38.94-2.49,2.5s.82,2.33,2,2.91a21.67,21.67,0,0,0,10.41,1.73c4.82-.15,9.64-.41,14.44-.82a15.85,15.85,0,0,0,4.21-1.38,2.06,2.06,0,0,0,1.58-2.41c-.28-1.34-1.39-1.65-2.54-1.73-2-.14-4-.18-6-.3-3.37-.21-6.76-.31-10.12-.71a6.64,6.64,0,0,1-6.08-5.34c-.33-1.37-1.31-1.8-2.42-2.22a10.27,10.27,0,0,1-6.91-8.07,9,9,0,0,1,4.06-9.46,16.57,16.57,0,0,1,14.38-1.72C216.78,156.76,217.5,157,218.37,157.29Zm1.25,9.34c0-6.29-3.38-9.69-9.8-9.78-5.06-.07-8.81,3.54-8.75,8.43.06,5.14,4.71,10.4,9.19,10.4C215.84,175.68,219.6,172,219.62,166.63Z"/><path class="cls-1" d="M241.93,158.67l4.36-3.06v8.09l.35.11c.21-.45.38-.92.62-1.34a34.44,34.44,0,0,1,2.59-4.41,6.37,6.37,0,0,1,5.92-2.36c1.53.14,2.57,1,2.6,2.49a2.52,2.52,0,0,1-1.09,1.78c-.31.21-1.23-.1-1.63-.46a13,13,0,0,1-1.53-2.17,5,5,0,0,0-4.28,2.87,28.12,28.12,0,0,0-2.83,13c0,2.82,0,5.65.06,8.48,0,2.57.33,2.91,2.93,3.15a4.24,4.24,0,0,1,1.57.4H239.83c0-.08.08-.21.14-.24,3.28-1.09,3.37-1.22,3.37-4.72,0-6.27,0-12.54,0-18.81C243.35,160.21,243.18,159,241.93,158.67Z"/><path class="cls-1" d="M183.59,180.4c-.22-.06-.69-.16-1.15-.3-2-.58-3.83-1.32-6-.18-.87.47-2.31.2-3.39-.11a3.53,3.53,0,0,1-2.61-3.33,5,5,0,0,1,2.62-4.7,44,44,0,0,1,4.8-2.29c1-.43,1.84-1,1.68-2.16-.19-1.4-.17-3-1.81-3.66-1.26-.54-2.14-.07-2.45,1.31a9.31,9.31,0,0,1-.37,1.79c-.31.69-.54,1.77-1.72,1.2a1.57,1.57,0,0,1-.66-2.39,5.85,5.85,0,0,1,5.78-2.83,6,6,0,0,1,4.91,5.38C183.45,172.2,183.49,176.28,183.59,180.4Zm-4.15-10.48c-3.86.75-5.94,4.26-4.32,7.27a3.1,3.1,0,0,0,2.31,1.37,2.55,2.55,0,0,0,1.92-1.59C179.58,174.69,179.44,172.37,179.44,169.92Z"/><path class="cls-1" d="M227.16,158.23c2.22-1,5.05,0,6.91-3v3.23c0,4.67,0,9.34,0,14,0,3,0,3,2.92,3.52a.9.9,0,0,1,.66.51H227c.35-.21.54-.42.77-.46,2.51-.46,2.61-.56,2.62-3.06V161c0-2.52,0-2.52-2.58-2.68C227.6,158.32,227.38,158.26,227.16,158.23Z"/><path class="cls-1" d="M196.89,164.9c-1.14-.6-1.68-1.15-1.23-2.44a4.45,4.45,0,0,0-.22-2.28,12,12,0,0,0-.75-1.82l1.4-.62v1.55l1.54-.55c-.7-1.22-1.52-2.09-1.67-3.05s.35-2.15.66-3.7l3.81,1,.19-1.07a9.51,9.51,0,0,0,.65,1.09c.47.58,1,1.13,1.47,1.7l1.83-2.33,1.26,1.18c1.22-.56,2.41-.33,3.1,1.6C202.23,154.91,198.05,157.94,196.89,164.9Z"/></svg>