<svg xmlns="http://www.w3.org/2000/svg" viewBox="0 0 658.2 232.8"><g id="Layer_2" data-name="Layer 2"><g id="Layer_1-2" data-name="Layer 1"><path d="M50.33,35.8c6.41,4.6,6.28,14.18,2.45,19.63-3.47,4.92-8.4,7.46-14.3,8.31-5.25.75-13.37-3.58-14.75-8.4-2-6.94-.56-13.15,6.11-16.71,1.64-.87,3.74-.85,6.41-1.4C31.31,35.5,27,34,22.59,32.45c-5.47-1.93-10.85-4-15-8.32C1.51,17.91-.66,11.5.17,1.41.91,4,1.41,6.33,2.3,8.56c3.43,8.63,10.3,14,18,18.37,5.1,2.91,10.39,5.5,15.4,8.55a35.45,35.45,0,0,1,7.12,5.87c2.31,2.42,1.72,7.91-.67,9.68-4.39,3.25-8.44,2.83-11.86-1.86,1.81.29,3.19.22,4.31.73,3.6,1.65,6.52,1.32,7.92-1.17s.06-6.54-2.71-8.38c-5.55-3.68-13.42-.33-15.1,6.44-2.24,9.09,6,17,15.72,15.07,6-1.21,10.34-4.55,12.55-10.35,1.54-4.06.47-7.73-2.33-10.82C49.21,39.06,49,37.66,50.33,35.8Z"/><path d="M607.87,34.38C601.46,39,601.59,48.57,605.42,54c3.47,4.93,8.4,7.46,14.31,8.32,5.24.75,13.36-3.58,14.74-8.41,2-6.93.56-13.15-6.11-16.7-1.63-.87-3.74-.85-6.41-1.4,4.94-1.73,9.31-3.24,13.66-4.78,5.47-1.94,10.85-4,15-8.32,6-6.22,8.22-12.63,7.38-22.72-.74,2.54-1.24,4.92-2.12,7.15-3.44,8.63-10.31,14-18,18.37-5.11,2.9-10.4,5.5-15.41,8.55a35.39,35.39,0,0,0-7.12,5.87c-2.3,2.42-1.72,7.91.67,9.68,4.39,3.25,8.44,2.82,11.86-1.86-1.81.29-3.19.22-4.3.73-3.6,1.65-6.53,1.31-7.93-1.17s-.06-6.54,2.71-8.38c5.55-3.69,13.42-.33,15.1,6.44,2.25,9.09-6,17-15.71,15.06-6-1.2-10.35-4.54-12.56-10.34-1.54-4.06-.46-7.73,2.33-10.82C609,37.65,609.17,36.24,607.87,34.38Z"/><path d="M303.68,204.6a17.67,17.67,0,0,1-2.34.56A11,11,0,0,0,292,211.4c4.93,1.87,9.71,3.89,14.63,5.47a77.45,77.45,0,0,0,12,2.82,22.28,22.28,0,0,0,14.09-2.29,32.48,32.48,0,0,1-9.89,7.9A35.09,35.09,0,0,1,304.07,230c-10-.34-15.47-7.23-13.51-17.3-3.23-.77-6.44-1.34-9.66,0a5.27,5.27,0,0,0-3.24,5.19,3.63,3.63,0,0,0,3.39,3.38,5.23,5.23,0,0,1,1.39.69,4,4,0,0,1-5.34-3.62c-.35-3.32,1.41-6.4,4.7-7.1a28.9,28.9,0,0,1,7.5-.16c1.28.07,2.05,0,2.82-1.23a12.49,12.49,0,0,1,10.22-6.08,7,7,0,0,1,1.2.14Zm25.49,15.52c-3.15.13-6.67.83-10,.27a159.27,159.27,0,0,1-16.13-4.07c-3.87-1.08-7.68-2.38-11.82-3.68a34.24,34.24,0,0,0-.53,4.23c0,6.1,5.48,11.64,12.26,11.68a54.75,54.75,0,0,0,13.45-1.82A34.89,34.89,0,0,0,329.17,220.12Z"/><path d="M397.36,222.21a7.2,7.2,0,0,1,1.65-.9c1.78-.27,3.29-1.26,3.27-2.93s-.63-3.66-1.75-4.53A11.39,11.39,0,0,0,395,212c-1.73-.2-3.54.32-5.41.52.12,1.21.25,2.13.3,3.06.44,7.67-3.9,13.37-11.55,14.17-12.5,1.3-22.63-3.81-31.24-12.46,9.82,4.77,19.28,2.22,28.7-1.29,4.06-1.51,8.11-3,12.33-4.62a9.26,9.26,0,0,0-5.07-5,67.19,67.19,0,0,0-6.61-1.82l.15-.83a27.94,27.94,0,0,1,4.41.69,13.54,13.54,0,0,1,7.2,5.67,3,3,0,0,0,2.18,1c2,0,4.06-.43,6-.27,4.38.37,7.1,3.79,6.5,7.84C402.52,221.14,400.31,222.73,397.36,222.21Zm-46.66-2.44a40.92,40.92,0,0,0,22.21,8.88,18.14,18.14,0,0,0,9.33-1.37c5-2.3,8-7.84,7-12.72-.28-1.3-.72-1.87-2.2-1.37-3.48,1.19-7,2.18-10.53,3.34C368.13,219.3,359.8,222.41,350.7,219.77Z"/><path d="M343.33,212.58a12.25,12.25,0,0,0,.44,2.37c1.39,3.41,3.28,6.65,3,10.54a10.6,10.6,0,0,1-3.28,7.31c2.26-5.3,1.18-10.47-.26-15.7a38.43,38.43,0,0,1-1.29-7.67c-.15-2.31,1-3.25,3.31-3.37l3.69-.22c.13,0,.25-.13.37-.2-.67-2.39-1.3-2.74-7.19-3.84,3.38-.6,5.88.2,7.87,2.74a2.93,2.93,0,0,0,2.13.87c2.31-.07,4.62-.42,6.93-.56a10.63,10.63,0,0,1,9,3.86c-5.28-3.64-11.15-1.82-16.32-2.2l-2.33,6.77.62-.1,0,0a5.58,5.58,0,0,1-6.75-.64,16.84,16.84,0,0,0,1.78.7,3.48,3.48,0,0,0,4.26-1.73A9.48,9.48,0,0,0,350,207c0-.25-2.05-.41-3.25-.63l.8,3.35-.61.22a6.19,6.19,0,0,0-.72-1.51c-.51-.6-1.31-1.58-1.75-1.47-.73.17-1.75,1.07-1.79,1.72A16,16,0,0,0,343.33,212.58Z"/><path d="M336.78,212.47c-1.54,2.68-6,1.79-7.28-1.71a27.52,27.52,0,0,1-.77-4.3c-5.82.52-12.11-1.66-17.42,3.09a10.69,10.69,0,0,1,9.64-4.71,40.38,40.38,0,0,1,4.12.34c2.46.36,4.61.6,6.42-2,1.3-1.85,3.78-1.86,6.09-1.35-2.82.28-5.65.49-7.14,3.89,1.51.11,2.77.25,4,.3,2.76.12,4.09,1.35,3.74,4.1a61.89,61.89,0,0,1-1.74,8.26c-1.3,4.76-1.91,9.47,0,14.23a10,10,0,0,1-3-9.55c.52-2.65,1.82-5.15,2.69-7.74a22,22,0,0,0,.54-2.8,11.55,11.55,0,0,0,.79-3.49c-.06-.78-1.06-1.49-1.65-2.24a26.45,26.45,0,0,0-2,1.79,5.11,5.11,0,0,0-.72,1.3l-.54-.16a9.81,9.81,0,0,1,.18-1.54,10.8,10.8,0,0,1,.69-1.53c-4-.74-4.32.16-3.47,3.48C330.75,213.14,333.33,213.88,336.78,212.47Z"/><path d="M329.07,213.46a69.31,69.31,0,0,0-7.34-1.64,68.41,68.41,0,0,0-7.6-.06C319.65,208,324.33,211.79,329.07,213.46Z"/><path d="M350.05,213.18c2.74-.9,5.46-1.88,8.24-2.68s5.23-.62,7.43,1.41c-4.58-1.56-8.82.4-13.18,1.16a16.26,16.26,0,0,1-2.52.07S350.05,213.18,350.05,213.18Z"/><path d="M341.82,202.83c-.88.54-1.42,1.12-1.93,1.1s-1.13-.89-1.06-1.23a2,2,0,0,1,1.25-1.33C340.51,201.33,341,202.12,341.82,202.83Z"/></g></g></svg>